<?xml version="1.0" encoding="utf-8"?><!-- Uploaded to: SVG Repo, www.svgrepo.com, Generator: SVG Repo Mixer Tools -->
<svg fill="#000000" width="800px" height="800px" viewBox="0 0 24 24" id="coffee-beans-left-1" data-name="Flat Line" xmlns="http://www.w3.org/2000/svg" class="icon flat-line"><ellipse id="secondary" cx="14.5" cy="14.5" rx="6.93" ry="4.94" transform="translate(-5.28 9.11) rotate(-29.75)" style="fill: rgb(44, 169, 188); stroke-width: 2;"></ellipse><path id="primary" d="M11.9,10.31a5.64,5.64,0,0,0-2.61-.94C8,9.17,6.77,9.06,4,6" style="fill: none; stroke: rgb(0, 0, 0); stroke-linecap: round; stroke-linejoin: round; stroke-width: 2;"></path><path id="primary-2" data-name="primary" d="M8.19,14.35A10.48,10.48,0,0,1,7,13.78C3.7,11.87,2.12,8.4,3.49,6S8.66,3.31,12,5.22a8.54,8.54,0,0,1,3.49,3.64" style="fill: none; stroke: rgb(0, 0, 0); stroke-linecap: round; stroke-linejoin: round; stroke-width: 2;"></path><ellipse id="primary-3" data-name="primary" cx="14.5" cy="14.5" rx="6.93" ry="4.94" transform="translate(-5.28 9.11) rotate(-29.75)" style="fill: none; stroke: rgb(0, 0, 0); stroke-linecap: round; stroke-linejoin: round; stroke-width: 2;"></ellipse><path id="primary-4" data-name="primary" d="M9,18c6.16-6.44,5.51-.95,11-7" style="fill: none; stroke: rgb(0, 0, 0); stroke-linecap: round; stroke-linejoin: round; stroke-width: 2;"></path></svg>