<?xml version="1.0" encoding="utf-8"?><!-- Uploaded to: SVG Repo, www.svgrepo.com, Generator: SVG Repo Mixer Tools -->
<svg fill="#000000" width="800px" height="800px" viewBox="0 0 24 24" id="coffee" data-name="Flat Line" xmlns="http://www.w3.org/2000/svg" class="icon flat-line"><path id="secondary" d="M7,10h4a5,5,0,0,1,5,5v0a5,5,0,0,1-5,5H7a1,1,0,0,1-1-1V11a1,1,0,0,1,1-1Z" transform="translate(26 4) rotate(90)" style="fill: rgb(44, 169, 188); stroke-width: 2;"></path><path id="primary" d="M18,12H16v3a5.47,5.47,0,0,1-.1,1H18a2,2,0,0,0,0-4Z" style="fill: none; stroke: rgb(0, 0, 0); stroke-linecap: round; stroke-linejoin: round; stroke-width: 2;"></path><path id="primary-2" data-name="primary" d="M15,4V6M11,4V6M7,4V6m9,9V11a1,1,0,0,0-1-1H7a1,1,0,0,0-1,1v4a5,5,0,0,0,5,5h0A5,5,0,0,0,16,15ZM3,20H21" style="fill: none; stroke: rgb(0, 0, 0); stroke-linecap: round; stroke-linejoin: round; stroke-width: 2;"></path></svg>